<mxfile host="65bd71144e">
    <diagram id="05wwK0DA4uvUaCpv075d" name="PÃ¡gina-1">
        <mxGraphModel dx="1317" dy="1586" grid="1" gridSize="10" guides="1" tooltips="1" connect="1" arrows="1" fold="1" page="1" pageScale="1" pageWidth="827" pageHeight="1169" math="0" shadow="0">
            <root>
                <mxCell id="0"/>
                <mxCell id="1" parent="0"/>
                <mxCell id="bCgAjxny2w4EDlHhrZeU-2" value="U" style="text;html=1;align=center;verticalAlign=middle;resizable=0;points=[];autosize=1;strokeColor=none;fillColor=none;rotation=60;fontSize=34;" parent="1" vertex="1">
                    <mxGeometry x="350" y="650" width="50" height="50" as="geometry"/>
                </mxCell>
                <mxCell id="BrEinjW-ukixKmcARMXC-33" value="" style="edgeStyle=none;rounded=0;orthogonalLoop=1;jettySize=auto;html=1;endArrow=none;endFill=0;" parent="1" target="BrEinjW-ukixKmcARMXC-32" edge="1">
                    <mxGeometry relative="1" as="geometry">
                        <mxPoint x="600" y="460" as="sourcePoint"/>
                        <Array as="points">
                            <mxPoint x="670" y="460"/>
                        </Array>
                    </mxGeometry>
                </mxCell>
                <mxCell id="BrEinjW-ukixKmcARMXC-42" style="edgeStyle=none;rounded=0;orthogonalLoop=1;jettySize=auto;html=1;exitX=0.5;exitY=1;exitDx=0;exitDy=0;entryX=0;entryY=0;entryDx=0;entryDy=0;endArrow=none;endFill=0;" parent="1" source="SA3dniYWFba7JF4ocvw1-4" edge="1">
                    <mxGeometry relative="1" as="geometry">
                        <mxPoint x="320.0000000000002" y="400" as="targetPoint"/>
                        <mxPoint x="190" y="360" as="sourcePoint"/>
                    </mxGeometry>
                </mxCell>
                <mxCell id="BrEinjW-ukixKmcARMXC-43" style="edgeStyle=none;rounded=0;orthogonalLoop=1;jettySize=auto;html=1;exitX=0.5;exitY=1;exitDx=0;exitDy=0;entryX=0.132;entryY=-0.016;entryDx=0;entryDy=0;entryPerimeter=0;endArrow=none;endFill=0;" parent="1" source="SA3dniYWFba7JF4ocvw1-5" edge="1">
                    <mxGeometry relative="1" as="geometry">
                        <mxPoint x="356.96000000000004" y="398.0799999999999" as="targetPoint"/>
                        <mxPoint x="290" y="360" as="sourcePoint"/>
                    </mxGeometry>
                </mxCell>
                <mxCell id="BrEinjW-ukixKmcARMXC-44" style="edgeStyle=none;rounded=0;orthogonalLoop=1;jettySize=auto;html=1;exitX=0.5;exitY=1;exitDx=0;exitDy=0;entryX=0.25;entryY=0;entryDx=0;entryDy=0;endArrow=none;endFill=0;" parent="1" source="SA3dniYWFba7JF4ocvw1-6" edge="1">
                    <mxGeometry relative="1" as="geometry">
                        <mxPoint x="390" y="400" as="targetPoint"/>
                        <mxPoint x="390" y="360" as="sourcePoint"/>
                    </mxGeometry>
                </mxCell>
                <mxCell id="BrEinjW-ukixKmcARMXC-26" style="edgeStyle=none;rounded=0;orthogonalLoop=1;jettySize=auto;html=1;exitX=0;exitY=1;exitDx=0;exitDy=0;entryX=1;entryY=0;entryDx=0;entryDy=0;endArrow=none;endFill=0;" parent="1" source="BrEinjW-ukixKmcARMXC-22" target="SA3dniYWFba7JF4ocvw1-11" edge="1">
                    <mxGeometry relative="1" as="geometry">
                        <mxPoint x="320" y="700" as="targetPoint"/>
                    </mxGeometry>
                </mxCell>
                <mxCell id="BrEinjW-ukixKmcARMXC-27" style="edgeStyle=none;rounded=0;orthogonalLoop=1;jettySize=auto;html=1;exitX=1;exitY=1;exitDx=0;exitDy=0;entryX=0;entryY=0;entryDx=0;entryDy=0;endArrow=none;endFill=0;" parent="1" source="BrEinjW-ukixKmcARMXC-22" target="SA3dniYWFba7JF4ocvw1-10" edge="1">
                    <mxGeometry relative="1" as="geometry">
                        <mxPoint x="600" y="700" as="targetPoint"/>
                    </mxGeometry>
                </mxCell>
                <mxCell id="BrEinjW-ukixKmcARMXC-22" value="d" style="ellipse;whiteSpace=wrap;html=1;aspect=fixed;" parent="1" vertex="1">
                    <mxGeometry x="420" y="585" width="80" height="80" as="geometry"/>
                </mxCell>
                <mxCell id="BrEinjW-ukixKmcARMXC-24" style="edgeStyle=none;rounded=0;orthogonalLoop=1;jettySize=auto;html=1;exitX=0.5;exitY=0;exitDx=0;exitDy=0;entryX=0.5;entryY=1;entryDx=0;entryDy=0;endArrow=none;endFill=0;" parent="1" edge="1">
                    <mxGeometry relative="1" as="geometry">
                        <mxPoint x="470" y="585" as="sourcePoint"/>
                        <mxPoint x="470" y="520" as="targetPoint"/>
                    </mxGeometry>
                </mxCell>
                <mxCell id="BrEinjW-ukixKmcARMXC-25" style="edgeStyle=none;rounded=0;orthogonalLoop=1;jettySize=auto;html=1;exitX=0.5;exitY=0;exitDx=0;exitDy=0;entryX=0.5;entryY=1;entryDx=0;entryDy=0;endArrow=none;endFill=0;" parent="1" edge="1">
                    <mxGeometry relative="1" as="geometry">
                        <mxPoint x="450" y="585" as="sourcePoint"/>
                        <mxPoint x="450" y="520" as="targetPoint"/>
                    </mxGeometry>
                </mxCell>
                <mxCell id="BrEinjW-ukixKmcARMXC-46" style="edgeStyle=none;rounded=0;orthogonalLoop=1;jettySize=auto;html=1;exitX=0.5;exitY=1;exitDx=0;exitDy=0;entryX=0.666;entryY=-0.004;entryDx=0;entryDy=0;entryPerimeter=0;endArrow=none;endFill=0;" parent="1" source="3" edge="1">
                    <mxGeometry relative="1" as="geometry">
                        <mxPoint x="506.48" y="399.5200000000001" as="targetPoint"/>
                        <mxPoint x="520" y="359.9999999999998" as="sourcePoint"/>
                    </mxGeometry>
                </mxCell>
                <mxCell id="BrEinjW-ukixKmcARMXC-47" style="edgeStyle=none;rounded=0;orthogonalLoop=1;jettySize=auto;html=1;exitX=0.5;exitY=1;exitDx=0;exitDy=0;entryX=1;entryY=0;entryDx=0;entryDy=0;endArrow=none;endFill=0;" parent="1" source="4" edge="1">
                    <mxGeometry relative="1" as="geometry">
                        <mxPoint x="600" y="400" as="targetPoint"/>
                        <mxPoint x="620" y="359.9999999999998" as="sourcePoint"/>
                    </mxGeometry>
                </mxCell>
                <mxCell id="BrEinjW-ukixKmcARMXC-31" value="Veiculo" style="whiteSpace=wrap;html=1;align=center;" parent="1" vertex="1">
                    <mxGeometry x="1040" y="400" width="280" height="120" as="geometry"/>
                </mxCell>
                <mxCell id="BrEinjW-ukixKmcARMXC-32" value="Envolve" style="rhombus;whiteSpace=wrap;html=1;" parent="1" vertex="1">
                    <mxGeometry x="780" y="420" width="80" height="80" as="geometry"/>
                </mxCell>
                <mxCell id="BrEinjW-ukixKmcARMXC-34" value="" style="edgeStyle=none;rounded=0;orthogonalLoop=1;jettySize=auto;html=1;endArrow=none;endFill=0;" parent="1" edge="1">
                    <mxGeometry relative="1" as="geometry">
                        <mxPoint x="600" y="464.99999999999994" as="sourcePoint"/>
                        <mxPoint x="780" y="465.41999999999996" as="targetPoint"/>
                    </mxGeometry>
                </mxCell>
                <mxCell id="BrEinjW-ukixKmcARMXC-48" style="edgeStyle=none;rounded=0;orthogonalLoop=1;jettySize=auto;html=1;exitX=0.5;exitY=1;exitDx=0;exitDy=0;entryX=0.25;entryY=0;entryDx=0;entryDy=0;endArrow=none;endFill=0;" parent="1" source="BrEinjW-ukixKmcARMXC-35" target="BrEinjW-ukixKmcARMXC-31" edge="1">
                    <mxGeometry relative="1" as="geometry"/>
                </mxCell>
                <mxCell id="BrEinjW-ukixKmcARMXC-35" value="nome" style="ellipse;whiteSpace=wrap;html=1;align=center;fontStyle=4;" parent="1" vertex="1">
                    <mxGeometry x="1040" y="320" width="100" height="40" as="geometry"/>
                </mxCell>
                <mxCell id="BrEinjW-ukixKmcARMXC-49" style="edgeStyle=none;rounded=0;orthogonalLoop=1;jettySize=auto;html=1;exitX=0.5;exitY=1;exitDx=0;exitDy=0;entryX=0.5;entryY=0;entryDx=0;entryDy=0;endArrow=none;endFill=0;" parent="1" source="BrEinjW-ukixKmcARMXC-38" target="BrEinjW-ukixKmcARMXC-32" edge="1">
                    <mxGeometry relative="1" as="geometry"/>
                </mxCell>
                <mxCell id="BrEinjW-ukixKmcARMXC-38" value="quantidade" style="ellipse;whiteSpace=wrap;html=1;align=center;" parent="1" vertex="1">
                    <mxGeometry x="770" y="320" width="100" height="40" as="geometry"/>
                </mxCell>
                <mxCell id="BrEinjW-ukixKmcARMXC-39" value="N" style="text;html=1;align=center;verticalAlign=middle;resizable=0;points=[];autosize=1;strokeColor=none;fillColor=none;" parent="1" vertex="1">
                    <mxGeometry x="1005" y="420" width="30" height="30" as="geometry"/>
                </mxCell>
                <mxCell id="BrEinjW-ukixKmcARMXC-40" value="N" style="text;html=1;align=center;verticalAlign=middle;resizable=0;points=[];autosize=1;strokeColor=none;fillColor=none;" parent="1" vertex="1">
                    <mxGeometry x="595" y="435" width="30" height="30" as="geometry"/>
                </mxCell>
                <mxCell id="BrEinjW-ukixKmcARMXC-41" value="" style="edgeStyle=none;rounded=0;orthogonalLoop=1;jettySize=auto;html=1;endArrow=none;endFill=0;entryX=0;entryY=0.5;entryDx=0;entryDy=0;" parent="1" target="BrEinjW-ukixKmcARMXC-31" edge="1">
                    <mxGeometry relative="1" as="geometry">
                        <mxPoint x="860" y="459.65999999999997" as="sourcePoint"/>
                        <mxPoint x="990" y="460" as="targetPoint"/>
                    </mxGeometry>
                </mxCell>
                <mxCell id="BrEinjW-ukixKmcARMXC-55" value="" style="edgeStyle=none;rounded=0;orthogonalLoop=1;jettySize=auto;html=1;endArrow=none;endFill=0;entryX=0.5;entryY=0;entryDx=0;entryDy=0;" parent="1" source="BrEinjW-ukixKmcARMXC-50" target="BrEinjW-ukixKmcARMXC-57" edge="1">
                    <mxGeometry relative="1" as="geometry">
                        <mxPoint x="180" y="1070" as="targetPoint"/>
                    </mxGeometry>
                </mxCell>
                <mxCell id="SA3dniYWFba7JF4ocvw1-2" style="rounded=0;orthogonalLoop=1;jettySize=auto;html=1;exitX=1;exitY=0.5;exitDx=0;exitDy=0;entryX=0;entryY=0.5;entryDx=0;entryDy=0;endArrow=none;endFill=0;" parent="1" source="BrEinjW-ukixKmcARMXC-50" target="SA3dniYWFba7JF4ocvw1-1" edge="1">
                    <mxGeometry relative="1" as="geometry"/>
                </mxCell>
                <mxCell id="BrEinjW-ukixKmcARMXC-50" value="Envolve" style="rhombus;whiteSpace=wrap;html=1;" parent="1" vertex="1">
                    <mxGeometry x="140" y="920" width="80" height="80" as="geometry"/>
                </mxCell>
                <mxCell id="BrEinjW-ukixKmcARMXC-57" value="CategoriaDeVitimas" style="whiteSpace=wrap;html=1;align=center;" parent="1" vertex="1">
                    <mxGeometry x="40" y="1090" width="280" height="120" as="geometry"/>
                </mxCell>
                <mxCell id="BrEinjW-ukixKmcARMXC-58" value="" style="edgeStyle=none;rounded=0;orthogonalLoop=1;jettySize=auto;html=1;endArrow=none;endFill=0;" parent="1" edge="1">
                    <mxGeometry relative="1" as="geometry">
                        <mxPoint x="189.9" y="820" as="sourcePoint"/>
                        <mxPoint x="190.1" y="920" as="targetPoint"/>
                    </mxGeometry>
                </mxCell>
                <mxCell id="BrEinjW-ukixKmcARMXC-59" value="" style="edgeStyle=none;rounded=0;orthogonalLoop=1;jettySize=auto;html=1;endArrow=none;endFill=0;" parent="1" edge="1">
                    <mxGeometry relative="1" as="geometry">
                        <mxPoint x="169.99999999999994" y="820" as="sourcePoint"/>
                        <mxPoint x="170.2" y="920" as="targetPoint"/>
                    </mxGeometry>
                </mxCell>
                <mxCell id="BrEinjW-ukixKmcARMXC-62" style="edgeStyle=none;rounded=0;orthogonalLoop=1;jettySize=auto;html=1;exitX=0.5;exitY=0;exitDx=0;exitDy=0;entryX=0.25;entryY=1;entryDx=0;entryDy=0;endArrow=none;endFill=0;" parent="1" source="BrEinjW-ukixKmcARMXC-60" target="BrEinjW-ukixKmcARMXC-57" edge="1">
                    <mxGeometry relative="1" as="geometry"/>
                </mxCell>
                <mxCell id="BrEinjW-ukixKmcARMXC-60" value="nome" style="ellipse;whiteSpace=wrap;html=1;align=center;fontStyle=4;" parent="1" vertex="1">
                    <mxGeometry x="40" y="1240" width="100" height="40" as="geometry"/>
                </mxCell>
                <mxCell id="BrEinjW-ukixKmcARMXC-65" value="Acidente" style="shape=ext;margin=3;double=1;whiteSpace=wrap;html=1;align=center;" parent="1" vertex="1">
                    <mxGeometry x="320" y="400" width="280" height="120" as="geometry"/>
                </mxCell>
                <mxCell id="BrEinjW-ukixKmcARMXC-73" value="" style="edgeStyle=none;rounded=0;orthogonalLoop=1;jettySize=auto;html=1;endArrow=none;endFill=0;entryX=0.5;entryY=0;entryDx=0;entryDy=0;" parent="1" source="BrEinjW-ukixKmcARMXC-66" target="BrEinjW-ukixKmcARMXC-79" edge="1">
                    <mxGeometry relative="1" as="geometry">
                        <mxPoint x="-220" y="230" as="targetPoint"/>
                    </mxGeometry>
                </mxCell>
                <mxCell id="BrEinjW-ukixKmcARMXC-66" value="Rodovia" style="whiteSpace=wrap;html=1;align=center;" parent="1" vertex="1">
                    <mxGeometry x="-360" y="40" width="280" height="120" as="geometry"/>
                </mxCell>
                <mxCell id="BrEinjW-ukixKmcARMXC-70" style="edgeStyle=none;rounded=0;orthogonalLoop=1;jettySize=auto;html=1;exitX=0.5;exitY=1;exitDx=0;exitDy=0;entryX=0;entryY=0;entryDx=0;entryDy=0;endArrow=none;endFill=0;" parent="1" source="BrEinjW-ukixKmcARMXC-67" target="BrEinjW-ukixKmcARMXC-66" edge="1">
                    <mxGeometry relative="1" as="geometry"/>
                </mxCell>
                <mxCell id="BrEinjW-ukixKmcARMXC-67" value="UF" style="ellipse;whiteSpace=wrap;html=1;align=center;fontStyle=4;" parent="1" vertex="1">
                    <mxGeometry x="-430" y="-45" width="100" height="40" as="geometry"/>
                </mxCell>
                <mxCell id="BrEinjW-ukixKmcARMXC-71" style="edgeStyle=none;rounded=0;orthogonalLoop=1;jettySize=auto;html=1;exitX=0.5;exitY=1;exitDx=0;exitDy=0;entryX=0.25;entryY=0;entryDx=0;entryDy=0;endArrow=none;endFill=0;" parent="1" source="BrEinjW-ukixKmcARMXC-68" target="BrEinjW-ukixKmcARMXC-66" edge="1">
                    <mxGeometry relative="1" as="geometry"/>
                </mxCell>
                <mxCell id="BrEinjW-ukixKmcARMXC-68" value="nome" style="ellipse;whiteSpace=wrap;html=1;align=center;fontStyle=4;" parent="1" vertex="1">
                    <mxGeometry x="-330" y="-45" width="100" height="40" as="geometry"/>
                </mxCell>
                <mxCell id="BrEinjW-ukixKmcARMXC-77" value="TrechoDeRodovia" style="shape=ext;margin=3;double=1;whiteSpace=wrap;html=1;align=center;" parent="1" vertex="1">
                    <mxGeometry x="-360" y="400" width="280" height="120" as="geometry"/>
                </mxCell>
                <mxCell id="BrEinjW-ukixKmcARMXC-79" value="Possui" style="shape=rhombus;double=1;perimeter=rhombusPerimeter;whiteSpace=wrap;html=1;align=center;" parent="1" vertex="1">
                    <mxGeometry x="-280" y="240" width="120" height="60" as="geometry"/>
                </mxCell>
                <mxCell id="BrEinjW-ukixKmcARMXC-80" value="" style="edgeStyle=none;rounded=0;orthogonalLoop=1;jettySize=auto;html=1;endArrow=none;endFill=0;exitX=0.5;exitY=1;exitDx=0;exitDy=0;entryX=0.5;entryY=0;entryDx=0;entryDy=0;" parent="1" edge="1">
                    <mxGeometry relative="1" as="geometry">
                        <mxPoint x="-210" y="300.0000000000002" as="sourcePoint"/>
                        <mxPoint x="-210" y="400.0000000000002" as="targetPoint"/>
                    </mxGeometry>
                </mxCell>
                <mxCell id="BrEinjW-ukixKmcARMXC-81" value="" style="edgeStyle=none;rounded=0;orthogonalLoop=1;jettySize=auto;html=1;endArrow=none;endFill=0;exitX=0.5;exitY=1;exitDx=0;exitDy=0;entryX=0.5;entryY=0;entryDx=0;entryDy=0;" parent="1" edge="1">
                    <mxGeometry relative="1" as="geometry">
                        <mxPoint x="-230" y="300.0000000000002" as="sourcePoint"/>
                        <mxPoint x="-230" y="400.0000000000002" as="targetPoint"/>
                    </mxGeometry>
                </mxCell>
                <mxCell id="BrEinjW-ukixKmcARMXC-82" value="N" style="text;html=1;align=center;verticalAlign=middle;resizable=0;points=[];autosize=1;strokeColor=none;fillColor=none;" parent="1" vertex="1">
                    <mxGeometry x="-210" y="370" width="30" height="30" as="geometry"/>
                </mxCell>
                <mxCell id="BrEinjW-ukixKmcARMXC-83" value="1" style="text;html=1;align=center;verticalAlign=middle;resizable=0;points=[];autosize=1;strokeColor=none;fillColor=none;" parent="1" vertex="1">
                    <mxGeometry x="-220" y="160" width="30" height="30" as="geometry"/>
                </mxCell>
                <mxCell id="BrEinjW-ukixKmcARMXC-86" style="edgeStyle=none;rounded=0;orthogonalLoop=1;jettySize=auto;html=1;exitX=0;exitY=0.5;exitDx=0;exitDy=0;entryX=1;entryY=0.5;entryDx=0;entryDy=0;endArrow=none;endFill=0;" parent="1" source="BrEinjW-ukixKmcARMXC-85" target="BrEinjW-ukixKmcARMXC-77" edge="1">
                    <mxGeometry relative="1" as="geometry"/>
                </mxCell>
                <mxCell id="BrEinjW-ukixKmcARMXC-87" style="edgeStyle=none;rounded=0;orthogonalLoop=1;jettySize=auto;html=1;exitX=1;exitY=0.5;exitDx=0;exitDy=0;entryX=0;entryY=0.5;entryDx=0;entryDy=0;endArrow=none;endFill=0;" parent="1" source="BrEinjW-ukixKmcARMXC-85" target="BrEinjW-ukixKmcARMXC-65" edge="1">
                    <mxGeometry relative="1" as="geometry"/>
                </mxCell>
                <mxCell id="BrEinjW-ukixKmcARMXC-85" value="Acontece em" style="shape=rhombus;double=1;perimeter=rhombusPerimeter;whiteSpace=wrap;html=1;align=center;" parent="1" vertex="1">
                    <mxGeometry x="40" y="430" width="120" height="60" as="geometry"/>
                </mxCell>
                <mxCell id="BrEinjW-ukixKmcARMXC-88" style="edgeStyle=none;rounded=0;orthogonalLoop=1;jettySize=auto;html=1;entryX=1;entryY=0.5;entryDx=0;entryDy=0;endArrow=none;endFill=0;" parent="1" edge="1">
                    <mxGeometry relative="1" as="geometry">
                        <mxPoint x="310" y="465" as="sourcePoint"/>
                        <mxPoint x="160" y="465.0000000000002" as="targetPoint"/>
                    </mxGeometry>
                </mxCell>
                <mxCell id="BrEinjW-ukixKmcARMXC-90" value="N" style="text;html=1;align=center;verticalAlign=middle;resizable=0;points=[];autosize=1;strokeColor=none;fillColor=none;" parent="1" vertex="1">
                    <mxGeometry x="285" y="435" width="30" height="30" as="geometry"/>
                </mxCell>
                <mxCell id="BrEinjW-ukixKmcARMXC-91" value="1" style="text;html=1;align=center;verticalAlign=middle;resizable=0;points=[];autosize=1;strokeColor=none;fillColor=none;" parent="1" vertex="1">
                    <mxGeometry x="-85" y="435" width="30" height="30" as="geometry"/>
                </mxCell>
                <mxCell id="BrEinjW-ukixKmcARMXC-94" style="edgeStyle=none;rounded=0;orthogonalLoop=1;jettySize=auto;html=1;exitX=0.5;exitY=0;exitDx=0;exitDy=0;entryX=0.25;entryY=1;entryDx=0;entryDy=0;endArrow=none;endFill=0;" parent="1" source="BrEinjW-ukixKmcARMXC-92" target="BrEinjW-ukixKmcARMXC-77" edge="1">
                    <mxGeometry relative="1" as="geometry"/>
                </mxCell>
                <mxCell id="BrEinjW-ukixKmcARMXC-92" value="&lt;span style=&quot;border-bottom: 1px dotted&quot;&gt;kmInicial&lt;/span&gt;" style="ellipse;whiteSpace=wrap;html=1;align=center;" parent="1" vertex="1">
                    <mxGeometry x="-360" y="560" width="100" height="40" as="geometry"/>
                </mxCell>
                <mxCell id="BrEinjW-ukixKmcARMXC-95" style="edgeStyle=none;rounded=0;orthogonalLoop=1;jettySize=auto;html=1;exitX=0.5;exitY=0;exitDx=0;exitDy=0;entryX=0.5;entryY=1;entryDx=0;entryDy=0;endArrow=none;endFill=0;" parent="1" source="BrEinjW-ukixKmcARMXC-93" target="BrEinjW-ukixKmcARMXC-77" edge="1">
                    <mxGeometry relative="1" as="geometry"/>
                </mxCell>
                <mxCell id="BrEinjW-ukixKmcARMXC-93" value="&lt;span style=&quot;border-bottom: 1px dotted&quot;&gt;kmFinal&lt;/span&gt;" style="ellipse;whiteSpace=wrap;html=1;align=center;" parent="1" vertex="1">
                    <mxGeometry x="-260" y="560" width="100" height="40" as="geometry"/>
                </mxCell>
                <mxCell id="BrEinjW-ukixKmcARMXC-102" style="edgeStyle=none;rounded=0;orthogonalLoop=1;jettySize=auto;html=1;exitX=1;exitY=0.5;exitDx=0;exitDy=0;entryX=0;entryY=0.25;entryDx=0;entryDy=0;endArrow=none;endFill=0;" parent="1" source="BrEinjW-ukixKmcARMXC-98" target="BrEinjW-ukixKmcARMXC-77" edge="1">
                    <mxGeometry relative="1" as="geometry"/>
                </mxCell>
                <mxCell id="BrEinjW-ukixKmcARMXC-98" value="dataAvaliacao" style="ellipse;whiteSpace=wrap;html=1;align=center;" parent="1" vertex="1">
                    <mxGeometry x="-520" y="400" width="100" height="40" as="geometry"/>
                </mxCell>
                <mxCell id="BrEinjW-ukixKmcARMXC-103" style="edgeStyle=none;rounded=0;orthogonalLoop=1;jettySize=auto;html=1;exitX=1;exitY=0.5;exitDx=0;exitDy=0;entryX=0;entryY=0.5;entryDx=0;entryDy=0;endArrow=none;endFill=0;" parent="1" source="BrEinjW-ukixKmcARMXC-99" target="BrEinjW-ukixKmcARMXC-77" edge="1">
                    <mxGeometry relative="1" as="geometry"/>
                </mxCell>
                <mxCell id="BrEinjW-ukixKmcARMXC-99" value="ICC" style="ellipse;whiteSpace=wrap;html=1;align=center;" parent="1" vertex="1">
                    <mxGeometry x="-520" y="440" width="100" height="40" as="geometry"/>
                </mxCell>
                <mxCell id="BrEinjW-ukixKmcARMXC-104" style="edgeStyle=none;rounded=0;orthogonalLoop=1;jettySize=auto;html=1;exitX=1;exitY=0.5;exitDx=0;exitDy=0;entryX=0;entryY=0.75;entryDx=0;entryDy=0;endArrow=none;endFill=0;" parent="1" source="BrEinjW-ukixKmcARMXC-100" target="BrEinjW-ukixKmcARMXC-77" edge="1">
                    <mxGeometry relative="1" as="geometry"/>
                </mxCell>
                <mxCell id="BrEinjW-ukixKmcARMXC-100" value="ICP" style="ellipse;whiteSpace=wrap;html=1;align=center;" parent="1" vertex="1">
                    <mxGeometry x="-520" y="480" width="100" height="40" as="geometry"/>
                </mxCell>
                <mxCell id="BrEinjW-ukixKmcARMXC-105" style="edgeStyle=none;rounded=0;orthogonalLoop=1;jettySize=auto;html=1;exitX=1;exitY=0.5;exitDx=0;exitDy=0;entryX=0;entryY=1;entryDx=0;entryDy=0;endArrow=none;endFill=0;" parent="1" source="BrEinjW-ukixKmcARMXC-101" target="BrEinjW-ukixKmcARMXC-77" edge="1">
                    <mxGeometry relative="1" as="geometry"/>
                </mxCell>
                <mxCell id="BrEinjW-ukixKmcARMXC-101" value="ICM" style="ellipse;whiteSpace=wrap;html=1;align=center;" parent="1" vertex="1">
                    <mxGeometry x="-520" y="520" width="100" height="40" as="geometry"/>
                </mxCell>
                <mxCell id="BrEinjW-ukixKmcARMXC-106" value="N" style="text;html=1;align=center;verticalAlign=middle;resizable=0;points=[];autosize=1;strokeColor=none;fillColor=none;" parent="1" vertex="1">
                    <mxGeometry x="185" y="1065" width="30" height="30" as="geometry"/>
                </mxCell>
                <mxCell id="BrEinjW-ukixKmcARMXC-107" value="N" style="text;html=1;align=center;verticalAlign=middle;resizable=0;points=[];autosize=1;strokeColor=none;fillColor=none;" parent="1" vertex="1">
                    <mxGeometry x="190" y="820" width="30" height="30" as="geometry"/>
                </mxCell>
                <mxCell id="SA3dniYWFba7JF4ocvw1-1" value="quantidade" style="ellipse;whiteSpace=wrap;html=1;align=center;" parent="1" vertex="1">
                    <mxGeometry x="340" y="940" width="100" height="40" as="geometry"/>
                </mxCell>
                <mxCell id="SA3dniYWFba7JF4ocvw1-4" value="&lt;span style=&quot;border-bottom: 1px dotted&quot;&gt;data&lt;/span&gt;" style="ellipse;whiteSpace=wrap;html=1;align=center;" parent="1" vertex="1">
                    <mxGeometry x="170" y="320" width="100" height="40" as="geometry"/>
                </mxCell>
                <mxCell id="SA3dniYWFba7JF4ocvw1-5" value="&lt;span style=&quot;border-bottom: 1px dotted&quot;&gt;horario&lt;/span&gt;" style="ellipse;whiteSpace=wrap;html=1;align=center;" parent="1" vertex="1">
                    <mxGeometry x="270" y="320" width="100" height="40" as="geometry"/>
                </mxCell>
                <mxCell id="SA3dniYWFba7JF4ocvw1-6" value="&lt;span style=&quot;border-bottom: 1px dotted&quot;&gt;km&lt;/span&gt;" style="ellipse;whiteSpace=wrap;html=1;align=center;" parent="1" vertex="1">
                    <mxGeometry x="370" y="320" width="100" height="40" as="geometry"/>
                </mxCell>
                <mxCell id="SA3dniYWFba7JF4ocvw1-10" value="AcidentesSemVitima" style="shape=ext;margin=3;double=1;whiteSpace=wrap;html=1;align=center;" parent="1" vertex="1">
                    <mxGeometry x="610" y="700" width="280" height="120" as="geometry"/>
                </mxCell>
                <mxCell id="SA3dniYWFba7JF4ocvw1-11" value="AcidentesComVitima" style="shape=ext;margin=3;double=1;whiteSpace=wrap;html=1;align=center;" parent="1" vertex="1">
                    <mxGeometry x="35" y="700" width="280" height="120" as="geometry"/>
                </mxCell>
                <mxCell id="SA3dniYWFba7JF4ocvw1-12" value="U" style="text;html=1;align=center;verticalAlign=middle;resizable=0;points=[];autosize=1;strokeColor=none;fillColor=none;rotation=-60;fontSize=34;" parent="1" vertex="1">
                    <mxGeometry x="520" y="650" width="50" height="50" as="geometry"/>
                </mxCell>
                <mxCell id="3" value="sentido" style="ellipse;whiteSpace=wrap;html=1;align=center;" vertex="1" parent="1">
                    <mxGeometry x="470" y="320" width="100" height="40" as="geometry"/>
                </mxCell>
                <mxCell id="4" value="tipoDeAcidente" style="ellipse;whiteSpace=wrap;html=1;align=center;" vertex="1" parent="1">
                    <mxGeometry x="570" y="320" width="100" height="40" as="geometry"/>
                </mxCell>
            </root>
        </mxGraphModel>
    </diagram>
</mxfile>